<?xml version="1.0" encoding="UTF-8"?>
<svg version="1.1" xmlns="http://www.w3.org/2000/svg" width="1024" height="1024">
<path d="M0 0 C337.92 0 675.84 0 1024 0 C1024 337.92 1024 675.84 1024 1024 C686.08 1024 348.16 1024 0 1024 C0 686.08 0 348.16 0 0 Z " fill="#FEFDFC" transform="translate(0,0)"/>
<path d="M0 0 C0.70995117 0.15597656 1.41990234 0.31195313 2.15136719 0.47265625 C38.34996627 8.62753464 70.75907584 30.28869611 91.22265625 61.5 C105.65242088 84.4816795 116.02768936 110.55571556 116.203125 138.0234375 C116.21018463 138.76263931 116.21724426 139.50184113 116.22451782 140.26344299 C116.44865068 170.60836462 116.44865068 170.60836462 113 184 C112.80664062 184.8029248 112.61328125 185.60584961 112.4140625 186.43310547 C105.58195743 214.44157326 92.1521867 241.094881 71 261 C69.824375 262.2065625 69.824375 262.2065625 68.625 263.4375 C67.75875 264.283125 66.8925 265.12875 66 266 C65.34 266.64453125 64.68 267.2890625 64 267.953125 C38.85863819 291.60585354 4.56340877 304.92549946 -29.93530273 304.33203125 C-32.2930974 304.25275385 -34.64498979 304.13853001 -37 304 C-37.68578125 303.96132813 -38.3715625 303.92265625 -39.078125 303.8828125 C-57.99495989 302.61672513 -77.19726442 296.53515705 -93 286 C-93 285.34 -93 284.68 -93 284 C-86.22218339 284.68861379 -79.96139446 286.24885684 -73.41796875 288.09570312 C-62.20986628 291.17008379 -51.43184197 292.36562667 -39.8125 292.3125 C-38.53673096 292.30758545 -37.26096191 292.3026709 -35.9465332 292.29760742 C-26.30473449 292.17822519 -17.3318425 291.39850686 -8 289 C-7.3591748 288.83902832 -6.71834961 288.67805664 -6.05810547 288.51220703 C14.88047095 283.10484954 32.32612762 272.77749079 48 258 C48.72703125 257.34902344 49.4540625 256.69804688 50.203125 256.02734375 C72.13962815 235.55064387 87.43953327 201.95416303 89.11387634 171.96002197 C89.18033444 169.70606916 89.21699128 167.45405436 89.23828125 165.19921875 C89.25038887 163.94634819 89.25038887 163.94634819 89.26274109 162.66816711 C89.27651444 160.90241525 89.28726648 159.13663752 89.29516602 157.37084961 C89.30659531 155.60156194 89.32690042 153.83230622 89.35668945 152.06323242 C89.95220988 116.57487292 76.11896649 84.19038311 51.75 58.4375 C39.55016219 46.74017267 25.20682469 38.07735127 9.4375 32.125 C8.71933105 31.85083252 8.00116211 31.57666504 7.26123047 31.29418945 C-5.22230057 26.83736686 -17.69372013 25.4362482 -30.875 25.5625 C-31.92365738 25.56805908 -31.92365738 25.56805908 -32.99349976 25.57373047 C-43.76362107 25.65482315 -53.79890588 26.24432375 -64 30 C-65.15628906 30.41862305 -65.15628906 30.41862305 -66.3359375 30.84570312 C-76.76052927 34.71792925 -86.10872993 39.26539217 -95 46 C-95.845625 46.62519531 -96.69125 47.25039063 -97.5625 47.89453125 C-121.81553012 66.5011528 -135.87445136 92.1427831 -141 122 C-141.43350947 125.33760203 -141.7456313 128.64233314 -142 132 C-147.94 132 -153.88 132 -160 132 C-161.51704438 97.10797931 -145.69312627 65.36150862 -123.4375 39.5625 C-118.72451494 34.49285662 -113.48803835 30.20166043 -108 26 C-106.65228516 24.96359375 -106.65228516 24.96359375 -105.27734375 23.90625 C-75.57883405 1.68578231 -36.6231784 -8.15736688 0 0 Z " fill="#25A084" transform="translate(740,317)"/>
<path d="M0 0 C1.19753906 -0.04125 2.39507812 -0.0825 3.62890625 -0.125 C4.78003906 -0.1353125 5.93117188 -0.145625 7.1171875 -0.15625 C8.17276855 -0.17494141 9.22834961 -0.19363281 10.31591797 -0.21289062 C13.125 0.5 13.125 0.5 15.28540039 2.99902344 C17.3757612 6.97722834 19.02347671 10.95707501 20.56640625 15.171875 C21.04687408 16.45468605 21.04687408 16.45468605 21.53704834 17.76341248 C22.59407881 20.58976027 23.6406153 23.41988035 24.6875 26.25 C25.42838762 28.23511541 26.17018533 30.21989136 26.9128418 32.2043457 C28.08528552 35.33763187 29.25711812 38.47113368 30.42622375 41.60566711 C34.63341121 52.88415297 38.90430194 64.13822489 43.18356323 75.38952637 C44.41684342 78.63317122 45.64817883 81.87754873 46.87915039 85.12207031 C47.64461955 87.13739807 48.41015966 89.15269889 49.17578125 91.16796875 C49.68730743 92.51694496 49.68730743 92.51694496 50.20916748 93.89317322 C52.17922229 99.07255899 54.22001316 104.21171747 56.36442566 109.32173157 C57.33961567 112.11465464 57.43334928 114.57068188 57.125 117.5 C53.37237357 119.37631321 48.87997651 118.77120023 44.75 118.8125 C43.31140625 118.85600586 43.31140625 118.85600586 41.84375 118.90039062 C34.87943404 118.96343805 34.87943404 118.96343805 31.6640625 116.98828125 C29.56550117 113.59542955 28.19192144 110.1309137 26.875 106.375 C26.4728125 105.28251953 26.4728125 105.28251953 26.0625 104.16796875 C24.125 98.82007334 24.125 98.82007334 24.125 96.5 C8.615 96.83 -6.895 97.16 -22.875 97.5 C-25.185 103.44 -27.495 109.38 -29.875 115.5 C-32.875 118.5 -32.875 118.5 -35.11157227 118.87231445 C-35.96291748 118.8693335 -36.8142627 118.86635254 -37.69140625 118.86328125 C-38.62017578 118.86263672 -39.54894531 118.86199219 -40.50585938 118.86132812 C-41.47330078 118.84521484 -42.44074219 118.82910156 -43.4375 118.8125 C-44.40880859 118.81572266 -45.38011719 118.81894531 -46.38085938 118.82226562 C-53.60797991 118.76702009 -53.60797991 118.76702009 -55.875 116.5 C-55.52956176 111.23391305 -54.00617911 106.54212803 -52.1640625 101.640625 C-51.88407913 100.87875885 -51.60409576 100.1168927 -51.31562805 99.3319397 C-50.38385005 96.8020702 -49.44206715 94.27605428 -48.5 91.75 C-47.83744793 89.95868984 -47.17543231 88.1671812 -46.51391602 86.37548828 C-44.70149946 81.47298297 -42.87963312 76.57403534 -41.05609131 71.67565918 C-39.41228792 67.25588294 -37.77455321 62.83386522 -36.13641357 58.4119873 C-34.0314265 52.73188269 -31.92221309 47.05335063 -29.8125 41.375 C-29.41017151 40.29126099 -29.00784302 39.20752197 -28.59332275 38.09094238 C-21.20045114 18.19150352 -21.20045114 18.19150352 -17.44140625 8.6328125 C-16.98838135 7.4792627 -16.53535645 6.32571289 -16.06860352 5.13720703 C-12.97962138 -1.68774387 -6.60222201 0.0564896 0 0 Z " fill="#0671AF" transform="translate(445.875,471.5)"/>
<path d="M0 0 C0.70909012 -0.00350464 1.41818024 -0.00700928 2.14875793 -0.01062012 C4.49835937 -0.01944014 6.84766099 -0.01358746 9.19726562 -0.00683594 C10.82629454 -0.00818251 12.45532305 -0.01012298 14.08435059 -0.01263428 C17.50077129 -0.0155859 20.91708752 -0.0112867 24.33349609 -0.00195312 C28.71868964 0.00944148 33.10363838 0.00288221 37.48882294 -0.00909805 C40.85335138 -0.01631564 44.21782152 -0.0140292 47.58235168 -0.00884247 C49.1995293 -0.00750569 50.81671217 -0.00915468 52.43388367 -0.01380157 C54.69174272 -0.01886522 56.94920206 -0.0111592 59.20703125 0 C61.13657654 0.00238678 61.13657654 0.00238678 63.10510254 0.00482178 C66.10351562 0.25878906 66.10351562 0.25878906 68.10351562 2.25878906 C68.36230469 4.29003906 68.36230469 4.29003906 68.36914062 6.75878906 C68.37300781 8.08910156 68.37300781 8.08910156 68.37695312 9.44628906 C68.36921875 10.37441406 68.36148438 11.30253906 68.35351562 12.25878906 C68.36511719 13.65097656 68.36511719 13.65097656 68.37695312 15.07128906 C68.374375 15.95816406 68.37179687 16.84503906 68.36914062 17.75878906 C68.36688477 18.57347656 68.36462891 19.38816406 68.36230469 20.22753906 C68.10351562 22.25878906 68.10351562 22.25878906 66.10351562 24.25878906 C64.0027771 24.4992981 64.0027771 24.4992981 61.37841797 24.48583984 C60.39755219 24.48568878 59.4166864 24.48553772 58.40609741 24.48538208 C57.3446048 24.47505951 56.28311218 24.46473694 55.18945312 24.45410156 C54.10467682 24.45127167 53.01990051 24.44844177 51.9022522 24.44552612 C48.42756249 24.43430484 44.95312781 24.40919668 41.47851562 24.38378906 C39.12695684 24.37376178 36.77539403 24.3646355 34.42382812 24.35644531 C28.65021263 24.33605825 22.87715057 24.29691284 17.10351562 24.25878906 C17.10351562 31.51878906 17.10351562 38.77878906 17.10351562 46.25878906 C21.27427734 46.20658203 21.27427734 46.20658203 25.52929688 46.15332031 C28.21996026 46.12992931 30.91061234 46.11171014 33.60131836 46.09399414 C35.47246362 46.07890033 37.34357346 46.05842317 39.21459961 46.0324707 C41.90292089 45.99611314 44.59077476 45.97906891 47.27929688 45.96582031 C48.53568718 45.94259453 48.53568718 45.94259453 49.81745911 45.91889954 C55.68009611 45.91719769 55.68009611 45.91719769 57.82429504 47.64701843 C59.51990213 49.78342066 59.49054686 51.11420115 59.50195312 53.82128906 C59.50582031 54.70042969 59.5096875 55.57957031 59.51367188 56.48535156 C59.50207031 57.40058594 59.49046875 58.31582031 59.47851562 59.25878906 C59.49011719 60.17402344 59.50171875 61.08925781 59.51367188 62.03222656 C59.50980469 62.91136719 59.5059375 63.79050781 59.50195312 64.69628906 C59.49856934 65.499375 59.49518555 66.30246094 59.49169922 67.12988281 C59.00290681 69.81055566 58.20412514 70.56413384 56.10351562 72.25878906 C53.09055326 72.5205166 50.28870995 72.60739019 47.27929688 72.55175781 C45.98719551 72.54539055 45.98719551 72.54539055 44.66899109 72.53889465 C41.91768132 72.52210155 39.167104 72.48444862 36.41601562 72.44628906 C34.55079183 72.43124302 32.68555655 72.41755448 30.8203125 72.40527344 C26.24753766 72.37474757 21.67634648 72.31602895 17.10351562 72.25878906 C17.10351562 79.51878906 17.10351562 86.77878906 17.10351562 94.25878906 C22.37449219 94.22398437 22.37449219 94.22398437 27.75195312 94.18847656 C31.14420205 94.17289231 34.53644704 94.16074058 37.92871094 94.14892578 C40.29168474 94.13884983 42.65464602 94.12518877 45.01757812 94.10791016 C48.4082345 94.08373182 51.79872647 94.07232207 55.18945312 94.06347656 C56.25094574 94.05315399 57.31243835 94.04283142 58.40609741 94.03219604 C59.87739609 94.03196945 59.87739609 94.03196945 61.37841797 94.03173828 C62.24445648 94.02729706 63.110495 94.02285583 64.0027771 94.01828003 C66.10351562 94.25878906 66.10351562 94.25878906 68.10351562 96.25878906 C68.36230469 98.29003906 68.36230469 98.29003906 68.36914062 100.75878906 C68.37300781 102.08910156 68.37300781 102.08910156 68.37695312 103.44628906 C68.36921875 104.37441406 68.36148438 105.30253906 68.35351562 106.25878906 C68.36511719 107.65097656 68.36511719 107.65097656 68.37695312 109.07128906 C68.374375 109.95816406 68.37179687 110.84503906 68.36914062 111.75878906 C68.36688477 112.57347656 68.36462891 113.38816406 68.36230469 114.22753906 C68.10351562 116.25878906 68.10351562 116.25878906 66.10351562 118.25878906 C63.10510254 118.51275635 63.10510254 118.51275635 59.20703125 118.51757812 C58.14339607 118.52283508 58.14339607 118.52283508 57.05827332 118.52819824 C54.70867188 118.53701827 52.35937026 118.53116559 50.00976562 118.52441406 C48.38073671 118.52576064 46.7517082 118.52770111 45.12268066 118.5302124 C41.70625996 118.53316403 38.28994373 118.52886483 34.87353516 118.51953125 C30.48834161 118.50813664 26.10339287 118.51469592 21.71820831 118.52667618 C18.35367987 118.53389377 14.98920973 118.53160733 11.62467957 118.52642059 C10.00750195 118.52508381 8.39031908 118.5267328 6.77314758 118.5313797 C4.51528853 118.53644334 2.25782919 118.52873732 0 118.51757812 C-1.28636353 118.51598694 -2.57272705 118.51439575 -3.89807129 118.51275635 C-6.89648438 118.25878906 -6.89648438 118.25878906 -8.89648438 116.25878906 C-9.14816666 114.23789978 -9.14816666 114.23789978 -9.15045166 111.70385742 C-9.15609131 110.74478485 -9.16173096 109.78571228 -9.1675415 108.7975769 C-9.16349304 107.74192535 -9.15944458 106.6862738 -9.15527344 105.59863281 C-9.1605304 103.93515305 -9.1605304 103.93515305 -9.16589355 102.23806763 C-9.17472532 98.55741185 -9.16885654 94.87694693 -9.16210938 91.19628906 C-9.16345561 88.64803022 -9.16539579 86.09977163 -9.16790771 83.55151367 C-9.17086094 78.20488814 -9.16674455 72.85833156 -9.15722656 67.51171875 C-9.1463417 61.32574635 -9.14986718 55.13990578 -9.16087937 48.95393658 C-9.17103973 43.00908494 -9.16997601 37.06427437 -9.16411591 31.11941528 C-9.16277792 28.58676129 -9.16443231 26.05410395 -9.16907501 23.52145386 C-9.17413136 19.98719255 -9.16644241 16.45318745 -9.15527344 12.91894531 C-9.1593219 11.86329376 -9.16337036 10.80764221 -9.1675415 9.72000122 C-9.16190186 8.76092865 -9.15626221 7.80185608 -9.15045166 6.8137207 C-9.14969761 5.97748672 -9.14894356 5.14125275 -9.14816666 4.27967834 C-8.50012187 -0.92381377 -4.20252488 0.00519838 0 0 Z " fill="#0771AF" transform="translate(610.896484375,471.7412109375)"/>
<path d="M0 0 C1.05896484 -0.02900391 2.11792969 -0.05800781 3.20898438 -0.08789062 C4.73942383 -0.10045898 4.73942383 -0.10045898 6.30078125 -0.11328125 C7.23704346 -0.12786377 8.17330566 -0.14244629 9.13793945 -0.1574707 C12.50467984 0.46313403 13.46953489 1.74077117 15.6875 4.3125 C16.90519714 6.75799561 16.90519714 6.75799561 17.92651367 9.52636719 C18.31759811 10.56976257 18.70868256 11.61315796 19.11161804 12.68817139 C19.52208878 13.81716858 19.93255951 14.94616577 20.35546875 16.109375 C20.79458084 17.28977356 21.23369293 18.47017212 21.68611145 19.68634033 C22.85610829 22.83733115 24.01654489 25.99150872 25.17236328 29.14770508 C26.31637583 32.26531816 27.47219017 35.37854347 28.62695312 38.4921875 C30.43655439 43.37509631 32.2406389 48.25998748 34.04052734 53.14648438 C37.87760124 63.5520725 41.78040285 73.93304081 45.6875 84.3125 C47.80911153 81.13008271 48.90426642 78.25405328 50.19921875 74.65625 C50.44437729 73.97746796 50.68953583 73.29868591 50.94212341 72.59933472 C51.75709563 70.3384789 52.56593811 68.07547685 53.375 65.8125 C53.94557351 64.2285965 54.51637877 62.64477646 55.08740234 61.06103516 C58.38994439 51.87513629 61.61145543 42.66354015 64.77734375 33.4296875 C65.45674061 31.45506213 66.13618361 29.48045262 66.81567383 27.50585938 C68.1386942 23.65955687 69.44731597 19.8087208 70.7487793 15.95507812 C71.35549208 14.18603839 71.96264753 12.41715039 72.5703125 10.6484375 C72.8416954 9.8323703 73.11307831 9.0163031 73.39268494 8.17550659 C75.34675624 2.5396625 75.34675624 2.5396625 78.6875 0.3125 C81.21533203 0.06958008 81.21533203 0.06958008 84.1953125 0.08203125 C85.79826172 0.08493164 85.79826172 0.08493164 87.43359375 0.08789062 C89.10615234 0.10625977 89.10615234 0.10625977 90.8125 0.125 C92.49666016 0.1259668 92.49666016 0.1259668 94.21484375 0.12695312 C102.54729293 0.17229293 102.54729293 0.17229293 103.6875 1.3125 C103.32353845 8.30921546 101.07227763 14.16230512 98.48046875 20.62109375 C97.83092476 22.27115166 97.83092476 22.27115166 97.16825867 23.95454407 C95.74686334 27.55695185 94.31158804 31.15362656 92.875 34.75 C92.13367885 36.61611364 91.39354403 38.48269492 90.65347672 40.34930611 C88.10996628 46.76335476 85.55186589 53.17148031 82.9851265 59.57626534 C81.23616431 63.9405352 79.49253955 68.30689336 77.75146484 72.67431641 C75.46654206 78.4019287 73.1691837 84.12438437 70.86074829 89.84255981 C69.99827522 91.98168199 69.13885641 94.12203826 68.28256226 96.26364136 C67.09172942 99.23726909 65.88769883 102.20519205 64.6796875 105.171875 C64.33266281 106.04532059 63.98563812 106.91876617 63.62809753 107.81867981 C60.38066298 115.71359148 60.38066298 115.71359148 56.6875 118.3125 C52.89183052 119.12178355 49.05990974 118.91558629 45.1875 118.875 C43.61935547 118.91077148 43.61935547 118.91077148 42.01953125 118.94726562 C41.01277344 118.94533203 40.00601563 118.94339844 38.96875 118.94140625 C38.05158203 118.94213135 37.13441406 118.94285645 36.18945312 118.94360352 C32.63410907 118.0467881 31.77542653 116.28778548 29.6875 113.3125 C28.63710063 111.07749589 27.67387075 108.8004645 26.77709961 106.49951172 C26.5142045 105.8332439 26.25130939 105.16697609 25.98044777 104.48051834 C25.41186898 103.03690433 24.84722075 101.59173729 24.2861042 100.14520645 C23.07084797 97.01270973 21.83653915 93.8878314 20.60322094 90.76241112 C19.95331818 89.11519874 19.30436713 87.46761057 18.65632343 85.81966591 C15.47697423 77.74399903 12.19883068 69.70999709 8.90730667 61.67954254 C6.97863491 56.96872529 5.06225918 52.2528914 3.14399147 47.53783035 C1.51345658 43.53216295 -0.1221071 39.52866699 -1.7668457 35.52880859 C-3.40226174 31.55078496 -5.02506618 27.56783106 -6.63923836 23.58114243 C-7.24667793 22.0873593 -7.85867444 20.59542022 -8.47546196 19.10547256 C-9.32440675 17.05301424 -10.15704028 14.99464339 -10.98608398 12.93408203 C-11.69884743 11.19047897 -11.69884743 11.19047897 -12.42601013 9.41165161 C-13.35483165 6.16450935 -13.35868908 4.48793744 -12.3125 1.3125 C-9.82909749 -1.17090251 -3.33344815 0.03010338 0 0 Z " fill="#0671AF" transform="translate(295.3125,471.6875)"/>
<path d="M0 0 C1.64742187 -0.05607422 1.64742187 -0.05607422 3.328125 -0.11328125 C4.3903125 -0.12488281 5.4525 -0.13648438 6.546875 -0.1484375 C7.51979492 -0.16825684 8.49271484 -0.18807617 9.49511719 -0.20849609 C13.38514267 0.61542813 14.78755327 2.30334468 17.25 5.375 C18.65283203 8.40405273 18.65283203 8.40405273 19.7578125 11.80859375 C20.06866035 12.74143944 20.06866035 12.74143944 20.38578796 13.69313049 C20.83023236 15.03150516 21.26807188 16.37208819 21.69985962 17.71459961 C22.85962917 21.31841455 24.06891572 24.90572694 25.26953125 28.49609375 C25.51436752 29.23306488 25.7592038 29.97003601 26.01145935 30.7293396 C28.54569118 38.33322908 31.28185108 45.85834792 34.0625 53.375 C34.29356445 54.00085999 34.52462891 54.62671997 34.76269531 55.27154541 C35.86133337 58.24647312 36.9633029 61.22014007 38.06787109 64.19287109 C39.12929568 67.05008052 40.18487765 69.90935772 41.23828125 72.76953125 C43.03263478 79.02386716 43.03263478 79.02386716 46.25 84.375 C48.07982771 79.10712907 49.90912828 73.83907556 51.73779297 68.57080078 C53.291499 64.09475951 54.84671537 59.61924669 56.40283203 55.14404297 C59.87851336 45.14175624 63.34624653 35.1378582 66.72265625 25.1015625 C67.22607915 23.6113023 67.72957532 22.12106685 68.2331543 20.63085938 C69.14391561 17.93471394 70.04332957 15.23513087 70.93676758 12.53320312 C71.33661865 11.34919922 71.73646973 10.16519531 72.1484375 8.9453125 C72.48536621 7.93227051 72.82229492 6.91922852 73.16943359 5.87548828 C74.27568178 3.315571 74.96278039 1.95805475 77.25 0.375 C79.67016602 0.00268555 79.67016602 0.00268555 82.50390625 0.01171875 C83.52291016 0.01236328 84.54191406 0.01300781 85.59179688 0.01367188 C86.65462891 0.02978516 87.71746094 0.04589844 88.8125 0.0625 C90.41254883 0.05766602 90.41254883 0.05766602 92.04492188 0.05273438 C99.98303472 0.10803472 99.98303472 0.10803472 102.25 2.375 C101.87789292 7.17438584 100.24799686 11.49411504 98.5390625 15.953125 C98.25912445 16.696763 97.9791864 17.440401 97.69076538 18.20657349 C96.75750984 20.68143432 95.81632428 23.15319804 94.875 25.625 C94.21180097 27.37825212 93.54905088 29.13167411 92.88671875 30.88525391 C91.07247142 35.68381129 89.250871 40.47954792 87.42785645 45.27478027 C85.7948614 49.57296403 84.16613728 53.87276213 82.53720093 58.17248535 C73.39379381 82.30378503 73.39379381 82.30378503 69.35546875 92.85449219 C67.96467332 96.48914888 66.59394451 100.13042358 65.23828125 103.77832031 C64.61731315 105.42778168 63.99622629 107.07719835 63.375 108.7265625 C62.96374878 109.85316788 62.96374878 109.85316788 62.54418945 111.00253296 C61.1693702 114.62189084 60.55923563 116.16884291 57.25 118.375 C53.45356825 118.86202053 49.63684202 118.79144858 45.8125 118.8125 C44.76255859 118.84537109 43.71261719 118.87824219 42.63085938 118.91210938 C41.11395508 118.92274414 41.11395508 118.92274414 39.56640625 118.93359375 C38.18110718 118.95377563 38.18110718 118.95377563 36.76782227 118.97436523 C33.06533381 118.09299132 32.26484052 116.59044723 30.25 113.375 C28.68442344 110.13149127 27.34208919 106.81456107 26.01171875 103.46875 C25.61397247 102.48816116 25.2162262 101.50757233 24.806427 100.49726868 C23.50885347 97.29298617 22.2231695 94.08407507 20.9375 90.875 C20.04010613 88.65291589 19.14190602 86.43115722 18.24291992 84.2097168 C16.43064135 79.72800334 14.6229004 75.24450459 12.81933594 70.75927734 C9.87510233 63.43866898 6.90940055 56.12686267 3.94067383 48.81616211 C2.70276715 45.76754554 1.46826641 42.71758854 0.23706055 39.66625977 C-2.36953192 33.20976201 -4.99369926 26.76422123 -7.70703125 20.3515625 C-8.14313721 19.31410889 -8.57924316 18.27665527 -9.02856445 17.20776367 C-9.810278 15.35480727 -10.60095587 13.50559129 -11.40307617 11.66137695 C-11.73412354 10.874646 -12.0651709 10.08791504 -12.40625 9.27734375 C-12.69306641 8.61210693 -12.97988281 7.94687012 -13.27539062 7.26147461 C-13.85563755 4.95511248 -13.5396095 3.596224 -12.75 1.375 C-10.20435746 -1.17064254 -3.41557892 0.04348538 0 0 Z " fill="#0671AF" transform="translate(124.75,471.625)"/>
<path d="M0 0 C2.91947461 -0.2967413 5.62704198 -0.39888331 8.54882812 -0.37231445 C9.87580971 -0.37779045 9.87580971 -0.37779045 11.229599 -0.38337708 C14.16367591 -0.39150537 17.09720449 -0.3778536 20.03125 -0.36328125 C22.06384277 -0.36276292 24.09643605 -0.36327958 26.12902832 -0.36479187 C30.3928982 -0.36470204 34.65657941 -0.35425153 38.92041016 -0.33618164 C44.39521458 -0.31349416 49.86974312 -0.31294927 55.3445816 -0.31969929 C59.54293281 -0.32303539 63.74122072 -0.31641596 67.93955994 -0.30657005 C69.9586504 -0.30271156 71.9777479 -0.30157251 73.99684143 -0.3031559 C76.81508886 -0.30352536 79.63297808 -0.29093981 82.45117188 -0.2746582 C83.29175644 -0.27713562 84.132341 -0.27961304 84.99839783 -0.28216553 C90.77125983 -0.22874017 90.77125983 -0.22874017 93 2 C93.44626783 5.12546156 93.32410302 8.2837984 93.3125 11.4375 C93.32861328 12.30955078 93.34472656 13.18160156 93.36132812 14.08007812 C93.36197266 14.91861328 93.36261719 15.75714844 93.36328125 16.62109375 C93.36626221 17.3886499 93.36924316 18.15620605 93.37231445 18.94702148 C92.87752634 21.67533179 92.25046993 22.36979398 90 24 C86.8137207 24.34057617 86.8137207 24.34057617 82.92578125 24.29296875 C82.2419487 24.28872391 81.55811615 24.28447906 80.8535614 24.28010559 C78.67280439 24.26333353 76.49297691 24.22568657 74.3125 24.1875 C72.83269565 24.17245114 71.3528768 24.15876308 69.87304688 24.14648438 C66.24839664 24.11343569 62.62428906 24.06166446 59 24 C59.00444122 25.14814178 59.00888245 26.29628357 59.01345825 27.47921753 C59.05393791 38.28023296 59.08395239 49.08123308 59.10362434 59.88230705 C59.11407774 65.43573026 59.12826523 70.98909241 59.15087891 76.54248047 C59.17255192 81.89816008 59.1845569 87.25378082 59.18975449 92.60950089 C59.19346023 94.65651502 59.20069624 96.7035258 59.21146011 98.75051498 C59.22590142 101.60962733 59.22798104 104.46849399 59.22705078 107.32763672 C59.23424133 108.18071411 59.24143188 109.0337915 59.24884033 109.91271973 C59.22810432 115.77189568 59.22810432 115.77189568 57 118 C54.78515625 118.25878906 54.78515625 118.25878906 52.0625 118.265625 C51.08539062 118.26820313 50.10828125 118.27078125 49.1015625 118.2734375 C48.07804688 118.26570312 47.05453125 118.25796875 46 118.25 C44.97648438 118.25773438 43.95296875 118.26546875 42.8984375 118.2734375 C41.92132812 118.27085937 40.94421875 118.26828125 39.9375 118.265625 C39.03902344 118.26336914 38.14054688 118.26111328 37.21484375 118.25878906 C35 118 35 118 33 116 C32.81172007 113.07751618 32.7483126 110.25049178 32.77294922 107.32763672 C32.77265717 106.43001617 32.77236511 105.53239563 32.77206421 104.60757446 C32.77346097 101.63151485 32.78903844 98.65570355 32.8046875 95.6796875 C32.8084164 93.61988461 32.81126395 91.56007995 32.81326294 89.50027466 C32.8209091 84.0717888 32.84056601 78.6434095 32.8626709 73.21496582 C32.8831082 67.67848146 32.89226012 62.14197993 32.90234375 56.60546875 C32.92381098 45.73693228 32.95795874 34.86847499 33 24 C31.5162085 24.02356567 31.5162085 24.02356567 30.00244141 24.04760742 C26.33862423 24.1018346 22.67484263 24.13632336 19.01074219 24.16479492 C17.42376749 24.17989814 15.83683463 24.20038223 14.25 24.22631836 C11.97124927 24.26263595 9.69304942 24.27971023 7.4140625 24.29296875 C6.70255035 24.30845261 5.99103821 24.32393646 5.25796509 24.33988953 C3.25634766 24.34057617 3.25634766 24.34057617 0 24 C-2.0331579 20.95026315 -2.2548508 20.31043132 -2.265625 16.875 C-2.26820313 16.08609375 -2.27078125 15.2971875 -2.2734375 14.484375 C-2.26570313 13.66453125 -2.25796875 12.8446875 -2.25 12 C-2.25773437 11.18015625 -2.26546875 10.3603125 -2.2734375 9.515625 C-2.27085937 8.72671875 -2.26828125 7.9378125 -2.265625 7.125 C-2.26336914 6.40570313 -2.26111328 5.68640625 -2.25878906 4.9453125 C-2 3 -2 3 0 0 Z " fill="#0670AE" transform="translate(495,472)"/>
<path d="M0 0 C1.13695312 0.98419922 1.13695312 0.98419922 2.296875 1.98828125 C19.59025052 18.14029399 32.64565259 44.41945391 34.203125 68.08666992 C34.30177419 71.37292107 34.3221752 74.64986654 34.3125 77.9375 C34.32861328 79.05962891 34.34472656 80.18175781 34.36132812 81.33789062 C34.36197266 82.41103516 34.36261719 83.48417969 34.36328125 84.58984375 C34.36626221 85.55784912 34.36924316 86.52585449 34.37231445 87.52319336 C34 90 34 90 32.72363281 91.81542969 C29.66656779 93.91640412 26.01297009 93.38667988 22.4375 93.3125 C21.65697266 93.31572266 20.87644531 93.31894531 20.07226562 93.32226562 C14.26716981 93.26716981 14.26716981 93.26716981 12 91 C11.65283203 88.99145508 11.65283203 88.99145508 11.5078125 86.51953125 C11.4137915 85.15574341 11.4137915 85.15574341 11.31787109 83.7644043 C11.2223999 82.30321167 11.2223999 82.30321167 11.125 80.8125 C9.06742976 55.27430109 -0.56791774 33.11143911 -20.17578125 16.2109375 C-33.50874341 5.77323822 -50.39920036 -0.35898047 -67.35546875 0.04296875 C-68.96287859 0.06533564 -70.57030129 0.08679334 -72.17773438 0.10742188 C-74.69298266 0.14464646 -77.20757088 0.18796973 -79.72241211 0.24682617 C-82.1626966 0.30118131 -84.60223173 0.33035586 -87.04296875 0.35546875 C-87.79611862 0.37925095 -88.54926849 0.40303314 -89.32524109 0.42753601 C-94.49897596 0.4535821 -94.49897596 0.4535821 -96.97241211 -1.78564453 C-98.53007706 -5.14226632 -98.43371425 -8.43852618 -98.375 -12.0625 C-98.38660156 -12.78244141 -98.39820313 -13.50238281 -98.41015625 -14.24414062 C-98.38131259 -19.42157814 -98.38131259 -19.42157814 -96.73046875 -21.92578125 C-68.66332051 -39.34895453 -21.58941718 -18.86531508 0 0 Z " fill="#25A084" transform="translate(773,393)"/>
<path d="M0 0 C1.46566406 -0.00386719 1.46566406 -0.00386719 2.9609375 -0.0078125 C3.98445312 -0.00007813 5.00796875 0.00765625 6.0625 0.015625 C7.08601562 0.00789063 8.10953125 0.00015625 9.1640625 -0.0078125 C10.14117188 -0.00523437 11.11828125 -0.00265625 12.125 0 C13.02347656 0.00225586 13.92195312 0.00451172 14.84765625 0.00683594 C17.0625 0.265625 17.0625 0.265625 19.0625 2.265625 C19.25077993 5.18810882 19.3141874 8.01513322 19.28955078 10.93798828 C19.28984283 11.83560883 19.29013489 12.73322937 19.29043579 13.65805054 C19.28903903 16.63411015 19.27346156 19.60992145 19.2578125 22.5859375 C19.2540836 24.64574039 19.25123605 26.70554505 19.24923706 28.76535034 C19.2415909 34.1938362 19.22193399 39.6222155 19.1998291 45.05065918 C19.1793918 50.58714354 19.17023988 56.12364507 19.16015625 61.66015625 C19.13868902 72.52869272 19.10454126 83.39715001 19.0625 94.265625 C19.90148331 94.25896317 19.90148331 94.25896317 20.75741577 94.25216675 C26.56448824 94.20801351 32.37151325 94.17779206 38.17871094 94.15576172 C40.34767594 94.14568711 42.51662731 94.13202702 44.68554688 94.11474609 C47.79821126 94.09056177 50.91069651 94.07915668 54.0234375 94.0703125 C54.997435 94.05998993 55.9714325 94.04966736 56.97494507 94.03903198 C57.87572784 94.03888092 58.77651062 94.03872986 59.70458984 94.03857422 C60.49956879 94.034133 61.29454773 94.02969177 62.11361694 94.02511597 C64.0625 94.265625 64.0625 94.265625 66.0625 96.265625 C66.50677647 99.20298356 66.38660856 102.17347788 66.375 105.140625 C66.39111328 105.95660156 66.40722656 106.77257812 66.42382812 107.61328125 C66.42447266 108.40347656 66.42511719 109.19367188 66.42578125 110.0078125 C66.42876221 110.7282373 66.43174316 111.44866211 66.43481445 112.19091797 C65.92953595 115.00656173 65.0780505 116.22621602 63.0625 118.265625 C60.17834473 118.76683044 60.17834473 118.76683044 56.61914062 118.76733398 C55.64547798 118.77543846 55.64547798 118.77543846 54.65214539 118.78370667 C52.50721591 118.79621077 50.36362446 118.77969414 48.21875 118.76171875 C46.72806732 118.7618737 45.23738423 118.76336204 43.7467041 118.76612854 C40.62278429 118.76751327 37.4993232 118.75494288 34.37548828 118.73217773 C30.37029134 118.70379229 26.36585668 118.70652914 22.36060333 118.71926785 C19.28250614 118.7262214 16.20458529 118.71843957 13.12651062 118.70601082 C11.64972103 118.70149313 10.17291253 118.7011623 8.69612122 118.70507622 C6.63230562 118.70798542 4.56954205 118.69149777 2.50585938 118.66967773 C1.33132202 118.66427475 0.15678467 118.65887177 -1.05334473 118.65330505 C-3.9375 118.265625 -3.9375 118.265625 -5.59437084 117.03122139 C-7.32483229 114.75646139 -7.31229757 113.47024982 -7.3117218 110.62840271 C-7.31873611 109.67636963 -7.32575043 108.72433655 -7.33297729 107.74345398 C-7.32533356 106.70074844 -7.31768982 105.65804291 -7.30981445 104.58374023 C-7.31346512 103.48436127 -7.31711578 102.3849823 -7.32087708 101.25228882 C-7.3289994 97.60944287 -7.31535894 93.96703934 -7.30078125 90.32421875 C-7.30026288 87.79980978 -7.30077967 85.27540039 -7.30229187 82.75099182 C-7.30220207 77.45738209 -7.2920938 72.16392847 -7.27368164 66.87036133 C-7.25250303 60.74627637 -7.24900642 54.6223789 -7.2552436 48.49826473 C-7.26093345 42.61053265 -7.25519265 36.72285718 -7.24407005 30.83513069 C-7.24021046 28.32759938 -7.23907296 25.8200624 -7.2406559 23.31252861 C-7.24102511 19.81428001 -7.22844706 16.31632057 -7.2121582 12.81811523 C-7.21463562 11.77338547 -7.21711304 10.7286557 -7.21966553 9.65226746 C-7.21258072 8.7030542 -7.20549591 7.75384094 -7.19819641 6.77586365 C-7.19511711 5.53452242 -7.19511711 5.53452242 -7.19197559 4.2681036 C-6.62812784 -0.16883687 -3.75946815 0.00943912 0 0 Z " fill="#0872AF" transform="translate(703.9375,471.734375)"/>
<path d="M0 0 C1.46566406 -0.00386719 1.46566406 -0.00386719 2.9609375 -0.0078125 C3.98445312 -0.00007813 5.00796875 0.00765625 6.0625 0.015625 C7.08601563 0.00789063 8.10953125 0.00015625 9.1640625 -0.0078125 C10.14117187 -0.00523437 11.11828125 -0.00265625 12.125 0 C13.02347656 0.00225586 13.92195313 0.00451172 14.84765625 0.00683594 C17.0625 0.265625 17.0625 0.265625 19.0625 2.265625 C19.31697559 4.2681036 19.31697559 4.2681036 19.32319641 6.77586365 C19.33028122 7.7250769 19.33736603 8.67429016 19.34466553 9.65226746 C19.34218811 10.69699722 19.33971069 11.74172699 19.3371582 12.81811523 C19.3448246 14.46455521 19.3448246 14.46455521 19.35264587 16.14425659 C19.3665933 19.78763214 19.36558123 23.43081961 19.36328125 27.07421875 C19.36716534 29.59766206 19.37149941 32.12110471 19.37626648 34.64454651 C19.38373979 39.93989447 19.38356693 45.23517287 19.37817383 50.53051758 C19.37213321 56.65403062 19.38444515 62.77731393 19.4057439 68.90078777 C19.42546903 74.78797179 19.4285354 80.67508447 19.42500877 86.56230354 C19.42552351 89.06901654 19.43078951 91.57573309 19.44082069 94.08242607 C19.45310913 97.58304593 19.4464388 101.08312944 19.43481445 104.58374023 C19.44628006 106.14779854 19.44628006 106.14779854 19.45797729 107.74345398 C19.45096298 108.69548706 19.44394867 109.64752014 19.4367218 110.62840271 C19.43688954 111.45634055 19.43705729 112.28427839 19.43723011 113.13730526 C18.9734765 115.77124347 18.16213009 116.65673737 16.0625 118.265625 C13.93359375 118.63793945 13.93359375 118.63793945 11.5 118.62890625 C10.62085938 118.62826172 9.74171875 118.62761719 8.8359375 118.62695312 C7.92070312 118.61083984 7.00546875 118.59472656 6.0625 118.578125 C5.14726562 118.58134766 4.23203125 118.58457031 3.2890625 118.58789062 C-3.53667092 118.53284439 -3.53667092 118.53284439 -6.9375 116.265625 C-7.31223011 114.24473572 -7.31223011 114.24473572 -7.3117218 111.71069336 C-7.31873611 110.75162079 -7.32575043 109.79254822 -7.33297729 108.80441284 C-7.32533356 107.74876129 -7.31768982 106.69310974 -7.30981445 105.60546875 C-7.31346512 104.49648224 -7.31711578 103.38749573 -7.32087708 102.24490356 C-7.32901013 98.5641569 -7.31534925 94.88384667 -7.30078125 91.203125 C-7.30026298 88.65486654 -7.30077941 86.10660767 -7.30229187 83.55834961 C-7.30220202 78.2116858 -7.29208351 72.86517638 -7.27368164 67.51855469 C-7.25251312 61.33257505 -7.24900378 55.14678103 -7.2552436 48.96077251 C-7.26093371 43.01591155 -7.25519187 37.07110665 -7.24407005 31.12625122 C-7.24020999 28.5936001 -7.23907316 26.06094336 -7.2406559 23.52828979 C-7.24102512 19.99401061 -7.22844626 16.46001761 -7.2121582 12.92578125 C-7.21463562 11.8701297 -7.21711304 10.81447815 -7.21966553 9.72683716 C-7.21258072 8.76776459 -7.20549591 7.80869202 -7.19819641 6.82055664 C-7.19614354 5.98432266 -7.19409067 5.14808868 -7.19197559 4.28651428 C-6.63165846 -0.16318119 -3.77456058 0.00947702 0 0 Z " fill="#0771AF" transform="translate(249.9375,471.734375)"/>
<path d="M0 0 C1.31786499 0.01244751 1.31786499 0.01244751 2.66235352 0.02514648 C20.71592035 0.48637499 35.84156034 7.64833635 48.5 20.4375 C49.19738281 21.10136719 49.89476562 21.76523437 50.61328125 22.44921875 C63.0024599 35.07896397 67.79156619 52.02543969 67.8984375 69.28515625 C67.5 72.4375 67.5 72.4375 66.4765625 74.3515625 C63.30042435 76.0965554 60.02491621 75.82840116 56.5 75.75 C55.77554688 75.75322266 55.05109375 75.75644531 54.3046875 75.75976562 C50.5192971 75.72135299 48.71704106 75.58219404 45.5 73.4375 C44.93960108 70.78672416 44.52845495 68.24130792 44.1875 65.5625 C42.27004763 53.03435221 37.19628934 42.45370049 27.06640625 34.53515625 C16.34676221 27.17609728 5.64387372 24.96867955 -7.140625 24.85205078 C-8.31238281 24.83053955 -8.31238281 24.83053955 -9.5078125 24.80859375 C-10.20535645 24.80786865 -10.90290039 24.80714355 -11.62158203 24.80639648 C-14.13333426 24.31312151 -15.00169045 23.49367544 -16.5 21.4375 C-16.84057617 19.44458008 -16.84057617 19.44458008 -16.79296875 17.20703125 C-16.78330078 16.40458984 -16.77363281 15.60214844 -16.76367188 14.77539062 C-16.73853516 13.94201172 -16.71339844 13.10863281 -16.6875 12.25 C-16.67396484 11.40501953 -16.66042969 10.56003906 -16.64648438 9.68945312 C-16.61115799 7.60519616 -16.55735139 5.52126723 -16.5 3.4375 C-10.85021669 0.57463937 -6.29810609 -0.07702065 0 0 Z " fill="#25A084" transform="translate(695.5,412.5625)"/>
<path d="M0 0 C0.66 0 1.32 0 2 0 C2.28198242 0.76554199 2.56396484 1.53108398 2.85449219 2.31982422 C3.91947706 5.2090645 4.98570754 8.0978414 6.05273438 10.98632812 C6.73400916 12.83168587 7.41389633 14.67755572 8.09375 16.5234375 C10.39026664 22.73754136 12.72893544 28.91374633 15.30957031 35.01611328 C16 37 16 37 16 40 C6.1 40 -3.8 40 -14 40 C-12.20765668 34.02552228 -10.45086978 28.27882411 -8.30078125 22.4609375 C-8.0608696 21.80920563 -7.82095795 21.15747375 -7.57377625 20.48599243 C-6.8228242 18.44794584 -6.06775602 16.41145499 -5.3125 14.375 C-4.79594774 12.97536233 -4.27966971 11.57562342 -3.76367188 10.17578125 C-2.51226966 6.78268275 -1.25717674 3.39096389 0 0 Z " fill="#FAFBFB" transform="translate(445,504)"/>
<path d="M0 0 C6.01548739 0.61326275 11.61604472 1.82591068 17.4375 3.4375 C23.59834137 5.12136338 29.75514553 6.6560123 36 8 C36 8.33 36 8.66 36 9 C34.02 9 32.04 9 30 9 C29.67 10.65 29.34 12.3 29 14 C23.44187711 13.45650689 19.0060483 11.98787825 13.9375 9.6875 C12.9155957 9.24374023 12.9155957 9.24374023 11.87304688 8.79101562 C7.60482014 6.89265926 3.73191801 4.82368212 0 2 C0 1.34 0 0.68 0 0 Z " fill="#1A9779" transform="translate(647,601)"/>
<path d="M0 0 C6.04801071 0.54981916 11.30601106 1.90429574 17 4 C12.47907032 5.45606519 9.48351204 4.27032841 5 3 C8.3 4.65 11.6 6.3 15 8 C12 9 12 9 9.3359375 7.890625 C8.35882812 7.34921875 7.38171875 6.8078125 6.375 6.25 C5.39273438 5.71890625 4.41046875 5.1878125 3.3984375 4.640625 C1 3 1 3 0 0 Z " fill="#138C6F" transform="translate(647,601)"/>
<path d="M0 0 C1.12758089 3.38274266 0.81750262 4.76778223 0.0625 8.1875 C-0.13214844 9.08855469 -0.32679688 9.98960937 -0.52734375 10.91796875 C-0.68332031 11.60503906 -0.83929687 12.29210937 -1 13 C-1.99 13.33 -2.98 13.66 -4 14 C-4.70905938 15.98536627 -5.36694179 17.98910922 -6 20 C-7.24224175 22.3981501 -8.60925157 24.68208596 -10 27 C-10.33 26.34 -10.66 25.68 -11 25 C-10.00870281 22.60411554 -8.9609046 20.31921572 -7.8125 18 C-7.15931384 16.64556335 -6.50827501 15.29008907 -5.859375 13.93359375 C-5.38081055 12.93368408 -5.38081055 12.93368408 -4.89257812 11.91357422 C-3.07567627 8.01836724 -1.5220184 4.01775043 0 0 Z " fill="#128F6F" transform="translate(824,517)"/>
<path d="M0 0 C0.66 0 1.32 0 2 0 C2 0.66 2 1.32 2 2 C6.62 2 11.24 2 16 2 C16.33 2.66 16.66 3.32 17 4 C11.39 4 5.78 4 0 4 C0 2.68 0 1.36 0 0 Z " fill="#0B9270" transform="translate(580,445)"/>
<path d="M0 0 C2.3431213 0.25561323 4.67843403 0.59270772 7 1 C7.33 1.66 7.66 2.32 8 3 C6.68 3.99 5.36 4.98 4 6 C2 5 2 5 -1 3 C-0.67 2.01 -0.34 1.02 0 0 Z " fill="#2AA288" transform="translate(664,607)"/>
<path d="M0 0 C1.32 0.33 2.64 0.66 4 1 C4.144375 2.216875 4.28875 3.43375 4.4375 4.6875 C4.82780953 7.82670377 5.32351856 10.9075134 6 14 C3.52813545 11.03653214 2.33751639 8.45958311 1.3125 4.75 C1.06113281 3.85796875 0.80976563 2.9659375 0.55078125 2.046875 C0.36902344 1.37140625 0.18726563 0.6959375 0 0 Z " fill="#06579E" transform="translate(307,538)"/>
<path d="M0 0 C5.445 1.485 5.445 1.485 11 3 C10.67 3.66 10.34 4.32 10 5 C6.05140217 4.4359146 3.29120954 3.2568294 0 1 C0 0.67 0 0.34 0 0 Z " fill="#2AA58C" transform="translate(651,603)"/>
<path d="M0 0 C2.5 2.0625 2.5 2.0625 5 5 C5.3125 8.8125 5.3125 8.8125 5 12 C1.66226291 8.35883227 1.02135098 4.71392758 0 0 Z " fill="#0759A1" transform="translate(457,531)"/>
</svg>
